<svg xmlns="http://www.w3.org/2000/svg" viewBox="0 0 1200 1500" role="img">
  <defs>
    <linearGradient id="bg" x1="0" x2="1" y1="0" y2="1">
      <stop offset="0" stop-color="#050505"/>
      <stop offset="0.55" stop-color="#1b1b1e"/>
      <stop offset="1" stop-color="#ff6a00"/>
    </linearGradient>
    <filter id="glow" x="-25%" y="-25%" width="150%" height="150%">
      <feGaussianBlur stdDeviation="22"/>
    </filter>
  </defs>
  <rect width="1200" height="1500" fill="url(#bg)"/>
  <circle cx="908" cy="302" r="210" fill="#ff6a00" opacity="0.32" filter="url(#glow)"/>
  <rect x="104" y="148" width="992" height="700" rx="30" fill="#101012" stroke="#4c4c52"/>
  <rect x="154" y="200" width="414" height="596" rx="22" fill="#f5f5f7"/>
  <rect x="614" y="200" width="432" height="278" rx="22" fill="#2f2f34"/>
  <rect x="614" y="518" width="432" height="278" rx="22" fill="#171719"/>
  <path d="M198 626 C286 500 368 678 460 538 C520 448 570 492 640 430 C726 354 828 388 982 282" fill="none" stroke="#ff6a00" stroke-width="14"/>
  <g fill="#ffffff" opacity="0.92">
    <rect x="120" y="1020" width="420" height="18" rx="9"/>
    <rect x="120" y="1070" width="710" height="18" rx="9" opacity="0.45"/>
    <rect x="120" y="1120" width="566" height="18" rx="9" opacity="0.45"/>
  </g>
  <text x="120" y="1284" fill="#f5f5f7" font-size="82" font-family="Arial, sans-serif" font-weight="700">AI PROMO</text>
  <text x="120" y="1350" fill="#ffb36f" font-size="28" font-family="Arial, sans-serif">SCRIPT · GENERATE · CUT · DELIVER</text>
</svg>
