<svg xmlns="http://www.w3.org/2000/svg" viewBox="0 0 1600 1000" role="img">
  <defs>
    <linearGradient id="bg" x1="0" x2="1" y1="0" y2="1">
      <stop offset="0" stop-color="#080808"/>
      <stop offset="0.56" stop-color="#1b1b1e"/>
      <stop offset="1" stop-color="#3b2a1f"/>
    </linearGradient>
    <linearGradient id="orange" x1="0" x2="1">
      <stop offset="0" stop-color="#ff6a00"/>
      <stop offset="1" stop-color="#ffb36f"/>
    </linearGradient>
    <filter id="glow" x="-20%" y="-20%" width="140%" height="140%">
      <feGaussianBlur stdDeviation="18" result="blur"/>
      <feMerge>
        <feMergeNode in="blur"/>
        <feMergeNode in="SourceGraphic"/>
      </feMerge>
    </filter>
  </defs>
  <rect width="1600" height="1000" fill="url(#bg)"/>
  <circle cx="1220" cy="225" r="210" fill="#ff6a00" opacity="0.16" filter="url(#glow)"/>
  <rect x="120" y="100" width="960" height="540" rx="24" fill="#0d0d0e" stroke="#353538"/>
  <rect x="152" y="132" width="896" height="476" rx="16" fill="#18181a"/>
  <rect x="196" y="176" width="420" height="260" rx="10" fill="#efefef" opacity="0.92"/>
  <rect x="642" y="176" width="360" height="116" rx="10" fill="#ffffff" opacity="0.18"/>
  <rect x="642" y="320" width="360" height="116" rx="10" fill="#ffffff" opacity="0.1"/>
  <path d="M208 494 C318 420 378 514 468 460 C544 414 614 454 690 400 C776 340 872 348 990 286" fill="none" stroke="url(#orange)" stroke-width="10"/>
  <rect x="120" y="706" width="1360" height="154" rx="18" fill="#111113" stroke="#343438"/>
  <g opacity="0.92">
    <rect x="158" y="744" width="166" height="34" rx="5" fill="#f5f5f7"/>
    <rect x="340" y="744" width="118" height="34" rx="5" fill="#6e6e73"/>
    <rect x="474" y="744" width="238" height="34" rx="5" fill="#ff6a00"/>
    <rect x="728" y="744" width="142" height="34" rx="5" fill="#f5f5f7"/>
    <rect x="886" y="744" width="302" height="34" rx="5" fill="#2d2d31"/>
    <rect x="1204" y="744" width="182" height="34" rx="5" fill="#ff6a00"/>
    <rect x="158" y="806" width="278" height="18" rx="4" fill="#45454a"/>
    <rect x="458" y="806" width="192" height="18" rx="4" fill="#f5f5f7"/>
    <rect x="672" y="806" width="388" height="18" rx="4" fill="#45454a"/>
    <rect x="1082" y="806" width="240" height="18" rx="4" fill="#f5f5f7"/>
  </g>
  <line x1="724" y1="700" x2="724" y2="872" stroke="#ff6a00" stroke-width="5"/>
  <text x="1198" y="548" fill="#f5f5f7" font-size="48" font-family="Arial, sans-serif" font-weight="700">CUT 01</text>
  <text x="1200" y="604" fill="#8b8b91" font-size="22" font-family="Arial, sans-serif">RHYTHM / COLOR / STORY</text>
</svg>
